<svg width="168" height="152" viewBox="0 0 168 152" fill="none" xmlns="http://www.w3.org/2000/svg">
<ellipse cx="84" cy="76" rx="84" ry="76" fill="#FFE4EE"/>
<path d="M125.954 24.6355H93.5852V41.193C93.5852 46.7158 98.0624 51.193 103.585 51.193H115.954C121.477 51.193 125.954 46.7159 125.954 41.193V24.6355Z" fill="url(#paint0_linear_8_3)"/>
<path d="M117.882 69.9536C120.529 69.9536 122.938 70.2331 125.111 70.7919C127.351 71.2884 129.183 71.9404 130.609 72.7474C132.373 73.7405 133.731 74.9824 134.682 76.4724C135.7 77.9005 136.209 79.5767 136.209 81.5011C136.209 83.6742 135.462 85.4743 133.969 86.9024C132.475 88.268 130.541 88.9511 128.165 88.9511C125.789 88.9511 123.889 88.3304 122.463 87.0886C121.038 85.8468 120.325 84.1705 120.325 82.0599C120.325 80.073 121.004 78.4279 122.362 77.1241C123.719 75.7584 125.28 74.858 127.045 74.4236C126.502 73.803 125.687 73.275 124.602 72.8404C123.515 72.4059 122.293 72.1886 120.936 72.1886C118.831 72.1886 116.965 72.7474 115.336 73.8649C113.775 74.9824 112.451 76.5343 111.365 78.5211C110.279 80.5079 109.431 82.8359 108.82 85.5054C108.277 88.175 108.005 91.0931 108.005 94.2594C108.005 99.0397 108.65 102.796 109.94 105.527C111.297 108.259 112.994 110.184 115.031 111.301C117.135 112.419 119.307 112.977 121.547 112.977C122.837 112.977 124.228 112.791 125.722 112.419C127.282 112.046 128.844 111.301 130.405 110.184C132.034 109.066 133.527 107.483 134.885 105.434L136.616 105.993C135.869 108.29 134.647 110.587 132.951 112.884C131.253 115.181 129.047 117.075 126.332 118.565C123.617 119.993 120.291 120.707 116.354 120.707C111.942 120.707 107.937 119.838 104.34 118.099C100.81 116.299 97.9588 113.567 95.787 109.904C93.6824 106.179 92.6306 101.399 92.6306 95.5629C92.6306 89.9754 93.7165 85.288 95.8888 81.5011C98.1288 77.6518 101.149 74.765 104.951 72.8404C108.751 70.9159 113.062 69.9536 117.882 69.9536Z" fill="black"/>
<path d="M63.0096 119.514C59.0392 119.457 55.4323 118.986 52.1886 118.102C48.8419 117.309 46.1098 116.292 43.9925 115.051C41.371 113.524 39.3667 111.632 37.9794 109.377C36.489 107.213 35.7684 104.688 35.8175 101.802C35.8733 98.5432 37.0391 95.8586 39.3155 93.749C41.5901 91.7329 44.5092 90.75 48.0724 90.8006C51.6355 90.8515 54.4701 91.8236 56.5762 93.7164C58.6823 95.6092 59.7087 98.1384 59.6547 101.304C59.6038 104.284 58.5434 106.737 56.4739 108.663C54.4029 110.682 52.0382 111.999 49.3802 112.613C50.1787 113.556 51.3868 114.365 53.0047 115.04C54.6223 115.715 56.4495 116.067 58.4853 116.096C61.6417 116.141 64.4554 115.343 66.9276 113.702C69.2974 112.06 71.3226 109.76 73.002 106.804C74.682 103.847 76.0143 100.373 76.9989 96.383C77.8817 92.3908 78.3638 88.02 78.4447 83.271C78.5669 76.1012 77.6959 70.4541 75.8316 66.3297C73.8655 62.2039 71.3694 59.2807 68.3439 57.561C65.2165 55.8401 61.9731 54.9556 58.6136 54.9075C56.6791 54.88 54.5877 55.1295 52.338 55.6561C49.9871 56.1815 47.6264 57.2653 45.2563 58.9077C42.7844 60.549 40.5042 62.8916 38.4157 65.9348L35.8338 65.0601C37.0126 61.6308 38.9039 58.2115 41.5079 54.8027C44.1116 51.394 47.4688 48.6012 51.5792 46.4248C55.6884 44.3414 60.6948 43.3418 66.5997 43.4261C73.2169 43.5206 79.2012 44.9099 84.5523 47.5942C89.8005 50.37 94.0061 54.5281 97.1701 60.0686C100.231 65.7003 101.686 72.8924 101.537 81.6451C101.394 90.0253 99.6448 97.0322 96.2904 102.666C92.8322 108.391 88.2279 112.656 82.4772 115.461C76.7271 118.266 70.2377 119.617 63.0096 119.514Z" fill="black"/>
<defs>
<linearGradient id="paint0_linear_8_3" x1="109.77" y1="24.6355" x2="109.77" y2="51.1933" gradientUnits="userSpaceOnUse">
<stop offset="0.442708" stop-color="#FF7BA9"/>
<stop offset="1" stop-color="#FFE7F0"/>
</linearGradient>
</defs>
</svg>
